<svg width="24" height="24" viewBox="0 0 24 24" fill="none" xmlns="http://www.w3.org/2000/svg">
<g id="Property 1=Operating System">
<path id="Vector" d="M19.625 2H4.625C3.92881 2 3.26113 2.27656 2.76884 2.76884C2.27656 3.26113 2 3.92881 2 4.625V15.125C2 15.8212 2.27656 16.4889 2.76884 16.9812C3.26113 17.4734 3.92881 17.75 4.625 17.75H19.625C19.9697 17.75 20.3111 17.6821 20.6295 17.5502C20.948 17.4183 21.2374 17.2249 21.4812 16.9812C21.7249 16.7374 21.9183 16.448 22.0502 16.1295C22.1821 15.8111 22.25 15.4697 22.25 15.125V4.625C22.25 4.28028 22.1821 3.93894 22.0502 3.62046C21.9183 3.30198 21.7249 3.0126 21.4812 2.76884C21.2374 2.52509 20.948 2.33173 20.6295 2.19982C20.3111 2.0679 19.9697 2 19.625 2ZM20 15.125C20 15.2245 19.9605 15.3198 19.8902 15.3902C19.8198 15.4605 19.7245 15.5 19.625 15.5H4.625C4.52554 15.5 4.43016 15.4605 4.35984 15.3902C4.28951 15.3198 4.25 15.2245 4.25 15.125V4.625C4.25 4.52554 4.28951 4.43016 4.35984 4.35984C4.43016 4.28951 4.52554 4.25 4.625 4.25H19.625C19.7245 4.25 19.8198 4.28951 19.8902 4.35984C19.9605 4.43016 20 4.52554 20 4.625V15.125ZM16.25 20C16.25 20.2984 16.1315 20.5845 15.9205 20.7955C15.7095 21.0065 15.4234 21.125 15.125 21.125H9.125C8.82663 21.125 8.54048 21.0065 8.3295 20.7955C8.11853 20.5845 8 20.2984 8 20C8 19.7016 8.11853 19.4155 8.3295 19.2045C8.54048 18.9935 8.82663 18.875 9.125 18.875H15.125C15.4234 18.875 15.7095 18.9935 15.9205 19.2045C16.1315 19.4155 16.25 19.7016 16.25 20Z" fill="white"/>
</g>
</svg>
